<svg xmlns="http://www.w3.org/2000/svg" viewBox="0 0 600 360" width="600" height="360" role="img" aria-label="Stylized US coverage map">
  <rect width="600" height="360" fill="#FAFAF7"/>
  <g fill="#0B1F3A">
    <circle cx="80"  cy="140" r="4" opacity="0.18"/>
    <circle cx="110" cy="125" r="4" opacity="0.18"/>
    <circle cx="140" cy="115" r="4" opacity="0.18"/>
    <circle cx="170" cy="125" r="4" opacity="0.18"/>
    <circle cx="200" cy="130" r="4" opacity="0.18"/>
    <circle cx="230" cy="125" r="4" opacity="0.18"/>
    <circle cx="260" cy="125" r="4" opacity="0.18"/>
    <circle cx="290" cy="130" r="4" opacity="0.18"/>
    <circle cx="320" cy="125" r="4" opacity="0.18"/>
    <circle cx="350" cy="130" r="4" opacity="0.18"/>
    <circle cx="380" cy="125" r="4" opacity="0.18"/>
    <circle cx="410" cy="130" r="4" opacity="0.18"/>
    <circle cx="440" cy="135" r="4" opacity="0.18"/>
    <circle cx="470" cy="140" r="4" opacity="0.18"/>
    <circle cx="500" cy="150" r="4" opacity="0.18"/>
    <circle cx="530" cy="160" r="4" opacity="0.18"/>

    <circle cx="80"  cy="170" r="4" opacity="0.18"/>
    <circle cx="110" cy="165" r="4" opacity="0.18"/>
    <circle cx="140" cy="160" r="4" opacity="0.18"/>
    <circle cx="170" cy="160" r="4" opacity="0.18"/>
    <circle cx="200" cy="160" r="4" opacity="0.18"/>
    <circle cx="230" cy="160" r="4" opacity="0.18"/>
    <circle cx="260" cy="160" r="4" opacity="0.18"/>
    <circle cx="290" cy="160" r="4" opacity="0.18"/>
    <circle cx="320" cy="160" r="4" opacity="0.18"/>
    <circle cx="350" cy="160" r="4" opacity="0.18"/>
    <circle cx="380" cy="160" r="4" opacity="0.18"/>
    <circle cx="410" cy="160" r="4" opacity="0.18"/>
    <circle cx="440" cy="165" r="4" opacity="0.18"/>
    <circle cx="470" cy="170" r="4" opacity="0.18"/>
    <circle cx="500" cy="180" r="4" opacity="0.18"/>

    <circle cx="100" cy="200" r="4" opacity="0.18"/>
    <circle cx="130" cy="195" r="4" opacity="0.18"/>
    <circle cx="160" cy="195" r="4" opacity="0.18"/>
    <circle cx="190" cy="195" r="4" opacity="0.18"/>
    <circle cx="220" cy="195" r="4" opacity="0.18"/>
    <circle cx="250" cy="195" r="4" opacity="0.18"/>
    <circle cx="280" cy="195" r="4" opacity="0.18"/>
    <circle cx="310" cy="195" r="4" opacity="0.18"/>
    <circle cx="340" cy="195" r="4" opacity="0.18"/>
    <circle cx="370" cy="200" r="4" opacity="0.18"/>
    <circle cx="400" cy="200" r="4" opacity="0.18"/>
    <circle cx="430" cy="205" r="4" opacity="0.18"/>
    <circle cx="460" cy="215" r="4" opacity="0.18"/>

    <circle cx="120" cy="230" r="4" opacity="0.18"/>
    <circle cx="150" cy="230" r="4" opacity="0.18"/>
    <circle cx="180" cy="230" r="4" opacity="0.18"/>
    <circle cx="210" cy="230" r="4" opacity="0.18"/>
    <circle cx="240" cy="230" r="4" opacity="0.18"/>
    <circle cx="270" cy="230" r="4" opacity="0.18"/>
    <circle cx="300" cy="230" r="4" opacity="0.18"/>
    <circle cx="330" cy="235" r="4" opacity="0.18"/>
    <circle cx="360" cy="240" r="4" opacity="0.18"/>
    <circle cx="390" cy="245" r="4" opacity="0.18"/>
    <circle cx="420" cy="250" r="4" opacity="0.18"/>

    <circle cx="200" cy="260" r="6" fill="#F5B400"/>
    <circle cx="80"  cy="200" r="6" fill="#F5B400"/>
    <circle cx="140" cy="220" r="6" fill="#F5B400"/>
    <circle cx="120" cy="190" r="6" fill="#F5B400"/>
    <circle cx="180" cy="215" r="6" fill="#F5B400"/>
    <circle cx="220" cy="180" r="6" fill="#F5B400"/>
    <circle cx="310" cy="170" r="6" fill="#F5B400"/>
    <circle cx="340" cy="180" r="6" fill="#F5B400"/>
    <circle cx="460" cy="150" r="6" fill="#F5B400"/>
    <circle cx="475" cy="170" r="6" fill="#F5B400"/>
    <circle cx="440" cy="170" r="6" fill="#F5B400"/>
    <circle cx="490" cy="140" r="6" fill="#F5B400"/>
  </g>
</svg>
